<?xml version="1.0" encoding="UTF-8" standalone="no"?>
<!-- Created with Inkscape (http://www.inkscape.org/) -->

<svg
   xmlns:dc="http://purl.org/dc/elements/1.1/"
   xmlns:cc="http://creativecommons.org/ns#"
   xmlns:rdf="http://www.w3.org/1999/02/22-rdf-syntax-ns#"
   xmlns:svg="http://www.w3.org/2000/svg"
   xmlns="http://www.w3.org/2000/svg"
   version="1.1"
   width="1024"
   height="1024"
   viewBox="0 0 819.2 819.19999"
   id="svg2">
  <metadata
     id="metadata16">
    <rdf:RDF>
      <cc:Work
         rdf:about="">
        <dc:format>image/svg+xml</dc:format>
        <dc:type
           rdf:resource="http://purl.org/dc/dcmitype/StillImage" />
        <dc:title></dc:title>
      </cc:Work>
    </rdf:RDF>
  </metadata>
  <defs
     id="defs4">
    <style
       type="text/css"
       id="style6" />
  </defs>
  <g
     transform="matrix(1.380451,0,0,1.380451,-3.8270457,26.56117)"
     id="g2993">
    <path
       d="m 290.64,0 13.75,0 c 27.1,1.74 53.93,10.53 75.89,26.69 36.1,25.85 58.39,69.93 57.44,114.37 -0.2,48.17 -27.44,95.28 -69.4,119.06 -14.18,-24.16 -28.13,-48.46 -42.04,-72.77 16.96,-9.66 27.54,-28.92 27.29,-48.35 0.01,-19.06 -10.65,-37.96 -27.45,-47.16 -15.43,-9.22 -35.51,-10.13 -51.63,-2.18 -22.32,9.99 -35.23,36.28 -30.45,60.1 2.94,16.1 13.37,30.58 27.8,38.35 -14.11,24.2 -27.94,48.55 -42.08,72.72 C 203.19,245.99 181.81,222.15 170,194.1 159.29,169.08 156.21,140.87 161.32,114.14 168.42,74.76 193.46,39.06 228.07,19 239.19,12.57 251.17,7.73 263.54,4.35 272.41,2.02 281.55,1.07 290.64,0 z"
       id="path8"
       style="fill:#ff0101" />
    <path
       d="m 75.17,293.22 c 35.46,-19.58 79.73,-22.86 117.42,-7.75 6.57,2.54 13.1,5.37 18.98,9.28 -13.89,24.15 -27.8,48.29 -41.79,72.39 -6.96,-2.96 -14.04,-6.1 -21.7,-6.62 -12.28,-1.2 -25.06,1.45 -35.4,8.31 -13.94,8.06 -22.94,23.17 -25.25,38.9 -2.4,17.27 3.77,35.37 16.23,47.54 8.48,7.94 19.37,13.57 30.97,14.98 15.75,2.13 32.38,-2.78 44.27,-13.38 12.13,-10.48 18.89,-26.66 18.52,-42.62 27.99,-0.1 55.99,0.07 83.99,-0.09 0.97,35.52 -13.36,70.88 -37.58,96.7 -19.11,20.46 -44.54,34.93 -71.93,40.84 -20.18,4.45 -41.36,4.32 -61.49,-0.35 C 74.67,542.94 42.4,519.99 23.48,488.43 -0.64,449.98 -4.05,399.33 15.15,358.14 27.28,330.68 48.82,307.57 75.17,293.22 z"
       id="path10"
       style="fill:#01ff01" />
    <path
       d="m 525.25,293.3 c 28.94,15.86 51.55,42.81 62.64,73.86 14.23,38.27 9.93,82.77 -10.92,117.83 -13.59,23.66 -34.48,43.11 -59.12,54.85 -32.4,16.36 -71.4,18.42 -105.66,6.8 -18.12,-6.07 -34.86,-16.06 -49.11,-28.76 -5.33,-5.33 -10.66,-10.69 -15.48,-16.5 -12.98,-16.47 -22.38,-35.79 -26.92,-56.29 -9.18,-40.3 0.91,-84.41 26.64,-116.74 10.89,-13.71 24.1,-25.79 39.43,-34.35 14.28,24.11 28.15,48.48 42.12,72.77 -8.82,5.33 -16.51,12.79 -21.02,22.15 -6.75,12.81 -8.18,28.28 -3.85,42.1 3.81,11.73 11.24,22.51 21.67,29.28 11,7.57 24.84,10.72 38.06,9.08 13.47,-1.52 26.05,-8.54 35.07,-18.56 8.09,-10.09 13.27,-22.79 13.18,-35.84 0.34,-19.97 -10.96,-39.82 -28.81,-49.03 14.3,-24.05 28.07,-48.43 42.08,-72.65 z"
       id="path12"
       style="fill:#0101ff" />
  </g>
</svg>
